<?xml version="1.0" encoding="UTF-8" standalone="no"?>
<!DOCTYPE svg PUBLIC "-//W3C//DTD SVG 1.1//EN" "http://www.w3.org/Graphics/SVG/1.1/DTD/svg11.dtd">
<svg width="100%" height="100%" viewBox="0 0 867 685" version="1.1" xmlns="http://www.w3.org/2000/svg" xmlns:xlink="http://www.w3.org/1999/xlink" xml:space="preserve" xmlns:serif="http://www.serif.com/" style="fill-rule: evenodd; stroke: #000000; stroke-linecap: square; font-size: 4px; font-weight: lighter; clip-rule: evenodd; stroke-miterlimit: 1.5">
    <rect x="0.4" y="0" width="105%" height="105.6%" style="fill: #ffffff"/>
    
    <path d="M 501.6 413 l 212.4 0 l 0 -413 m 0 0 l 152.7 0 m -43.1 517.3 l 0 -17.4 l 28.7 0 m 14.4 17.4 l -60.5 0 l 0 3.8 m -295.2 -36.8 l 0 -4.7 l 126.5 0 l 0 4.7 m 19 0 l 0 -4.7 l 84.8 0 l 0 -4 l 8.3 0 l 0 4 l 26.7 0 l 0 -13.4 m 0 -8.3 l 0 -11.5 m 0 -18 l 0 -15.4 l -62.2 0 m 62.2 -7.9 l -2.7 0 l 0.1 -51 l 3.1 0 m 0 -12.1 l -3.1 0 l 0.1 -53 l 3 0 m 0 -136.9 l -3.1 0 l 0.1 -51.4 l -59.8 0 m 62.8 177.2 l -3 0 l 0.2 -105.3 m 4.1 -9.5 l -64.2 0 m 60 63.2 l 16.1 0 l 0 -40.7 m 0.1 -185.7 l 0 100.8 m 76.6 62.4 l -60.7 0 l 0 51.2 l -2.2 0 m 62.8 -113.6 l -60.7 0 l 0 51.2 l -2.2 0 m 0 74.5 l 2.2 0 l 0 51.6 l -2.2 0 m 0 12.4 l 2.2 0 l 0 51.5 l -2.2 0 m 0 12.2 l 2.2 0 l 0 51 l -2.2 0 m 0 12.4 l 2.4 0 l 0 50.8 l -6 0 m 3.6 11.3 l 62.8 0 m 0 0 l 0 -479.5 m -219.8 413 l 0 71.3 m -145.3 -71.3 l 0 81.7 m 212.4 -81.7 l 0.2 66.6 m 0 0 l 0 15.6 m 14.6 -82.2 l 0 66.6 m -14.6 26.3 l 0 15.2 m -212.6 0 l 365.1 0 l 0 -41.5 m -152.7 -190.5 l 59.9 0 m 32.2 1.4 l 60.7 0 m -60.7 -64 l 60.7 0 m -152.7 0 l 60 0 m 32.1 127.6 l 60.7 0 m -60.7 63.4 l 60.7 0 m -137.9 19.8 l 48.2 0 m -48.2 18.2 l 47.4 0 m -47.4 -8.9 l 13.2 0 m -13.2 17.8 l 13.2 0 m -13.2 9.1 l 12.4 0 l 0 2.2 m -362.2 45.4 l 50.6 0 l 0 32.7 m -50.6 -14.9 l 50.6 0 m -45.2 31.4 l 45.2 0 m -45.2 16.7 l 45.2 0 m -45.2 -8.1 l 13.6 0 m -13.6 24.3 l 45.2 0 m -45.2 -7.9 l 13.6 0 m -19 -30.7 l 50.6 0 l 0 7.4 m 0 9.1 l 0 9.7 m 0 7.9 l 0 16.4 l -50 0 l 0 -3.2 l -9.5 0 l 0 3.2 l -22.7 0 l 0 -3.4 m -20.7 0 l 0 3.4 l -41.7 0 l 0 -3.2 m -21.3 0 l 0 3.2 l -41.7 0 l 0 -2.6 m -21.3 0 l 0 2.6 l -42.3 0 l 0 -2.6 m 42.3 26.1 l 0 -4 l -42.3 0 l 0 4 m -21.3 0 l 0 -4 l -43.1 0 l 0 4 m -21.5 0 l 0 -4 l -22 0 l 0 -4.9 m 0 -8.8 l 0 -25.2 l -4.5 0 m 0 -361.2 l 43.8 0 l 0 -4.5 m 21.3 0 l 0 4.5 l 41.9 0 l 0 -4.5 m -34.6 163.9 l -45.8 0 m 45.8 62.9 l -45.8 0 m 45.8 63.9 l -45.8 0 m 45.8 -96.5 l -49.4 0 m 49.4 -76.6 l -49.4 0 m 49.4 -17.7 l -49.4 0 m 49.4 -27.3 l -49.4 0 m 49.4 261.9 l 0 5.9 l -49.4 0 m 284.5 -267.8 l 0 -45.8 m -0.7 -27 l 0 -45.8 m 66.3 45.8 l 0 -26.8 m 0 -8.7 l 0 -10.3 m -192.6 45.8 l 0 -45.8 m -62.9 45.8 l 0 -45.8 m -63.3 45.8 l 0 -45.8 m 189.2 118.6 l 0 -45.8 m -63.1 45.8 l 0 -14.4 m 0 -8.7 l 0 -22.7 m 96.9 45.8 l 0 -50.3 m 55.9 50.3 l 5.8 0 l 0 -50.3 m -126.4 50.3 l 0 -50.3 m -62.5 50.3 l 0 -34.2 m 0 -8.7 l 0 -7.4 m -77.6 50.3 l 0 -4.9 l -3.1 0 l 0 -45.4 m -46.3 11.7 l 46.3 0 m -46.3 16.9 l 46.3 0 m -13 -8.1 l 13 0 m -46.3 24.8 l 46.3 0 m -13 -8 l 13 0 m 80.8 -55.4 l 0 -50.3 m -63 50.3 l 0 -50.3 m -80.2 50.3 l 0 -50.3 m 326.4 337 l 0 43.5 l -260.8 0 l 0 -261.9 l 260.8 0 l 0 202.1 m -55.8 -270.4 l 0 -50.3 m 61.7 50.3 l 0 -50.3 m 66.4 50.3 l 0 -31.3 m 0 -8.7 l 0 -10.3 m 3.6 97.7 l 46.8 0 m -50.3 333.3 l 50.3 0 m -50.3 -68.8 l 50.3 0 m -501.6 -280 l 49.4 0 m -49.4 -31.8 l 37.3 0 m -37.3 126.7 l 49.4 0 m -49.4 63.1 l 49.4 0 m -49.4 64 l 49.4 0 m -49.4 126.7 l 12.2 0 m 8.7 0 l 29.5 0 m -50.3 -31.2 l 12.2 0 m 8.7 0 l 24.9 0 m -45.8 -127 l 45.8 0 m -45.8 63.9 l 45.8 0 m -45.8 -126.9 l 45.8 0 m -45.8 -63 l 45.8 0 m 4.5 303.7 l 0 50.3 m 65.4 -50.3 l 0 50.3 m -32.5 -46.4 l 0 46.4 m 64.6 -46.4 l 0 46.4 m 63.1 -46.4 l 0 46.4 m 63.4 -46.4 l 0 46.4 m 227.1 -175 l 0 175 l -501.6 0 l 0 -501 l 501.6 0 l 0 228.9 m -164.3 225.6 l 0 46.4 m 61.3 -46.4 l 0 46.4 m -14.1 -120.5 l 0 50.6 m -206 19.6 l 0 50.3 m 63.1 -50.3 l 0 50.3 m -125.8 -114.5 l 0 44.6 m 32.1 -50.6 l 0 11.5 m 0 8.7 l 0 27.8 m 63.1 -48 l 0 48 m 63.4 -48 l 0 48 m 62.9 -48 l 0 48 m -158.8 -48 l 0 50.6 m 63.1 -50.6 l 0 50.6 m 63.3 -50.6 l 0 50.6 m 0 19.6 l 0 50.3 m 63.1 -50.3 l 0 50.3 m -322.1 -101.1 l 0 -9.5 l 4.5 0 l 0 -42.5 l -4.5 0 m 217.8 106.7 l 0 -4 l -41.7 0 l 0 4 m 104.7 0 l 0 -4 l -41.7 0 l 0 4 m 104.7 0 l 0 -4 l -42.3 0 l 0 4 m 82.2 46.4 l 0 -50.3 l -19.7 0 l 0 4 m -273 -26.1 l 0 2.6 l -68.2 0 l 0 -83.2 l 3.2 0 m 0 -21.5 l -3.2 0 l 0 -42.3 l 3.6 0 m -26.1 42.3 l 3.2 0 l 0 -42.3 l -3.6 0 m 26.5 -21.9 l -3.6 0 l 0 -42.3 l 3.6 0 m -26.5 42.3 l 3.6 0 l 0 -42.3 l -3.6 0 m 26.5 -21.3 l -3.6 0 l 0 -68 m -22.9 68 l 3.6 0 l 0 -41.3 l -3.6 0 m 0 -21.3 l 3.6 0 l 0 -20.4 l -49.4 0 m 45.9 -13.6 l 3.6 0 l 0 -41.5 m 19.4 61.5 l 0 -10.1 m 0 -8.7 l 0 -9.5 m 0 -8.5 l 0 -16.8 l 84 0 l 0 4.3 l 10.6 0 m 10.7 0 l 0 -4.3 l 41.8 0 l 0 4.2 m -41.9 -26.6 l 0 4.3 l 41.8 0 l 0 -4.2 m 20.7 26.4 l 0 -4.1 l 42.1 0 l 0 3.6 m -42.1 -25.7 l 0 4.1 l 42.1 0 l 0 -3.6 l 10.5 0 l 0 -46.8 m 212.2 131.5 l -50.3 0 l 0 -22.4 l 3.6 0 m 0 -21.1 l -3.6 0 l 0 -19.7 l 50.3 0 m -200.8 3.6 l 0 -3.6 l 41.9 0 l 0 3.5 m -41.9 -25 l 0 3.6 l 41.9 0 l 0 -3.5 m 21.1 -0.1 l 0 3.6 l 44.6 0 l 0 -3.5 m 21.3 -0.1 l 0 3.6 l 21.5 0 l 0 8.1 l 3.6 0 m -12.5 395.8 l 0 -3.6 l 9 0 l 0 -53.6 l 3.6 0 m 46.8 -60 l -50.3 0 l 0 47.7 l 3.6 0 m -91 -313 l 0 -3.5 l 65.8 0 l 0 19.7 l -3.6 0 m 0 9.7 l 3.6 0 l 0 33.8 l -50.6 0 m 403.2 152.7 l -6 0 m -344.7 61.7 l -1.8 0 m 21.6 0 l -1.8 0" style="fill: none; stroke: #000000; stroke-width: 0.7px"/>

    <!-- Lokalen: gangen -->
    <text x="501" y="501">46</text>
    <text x="506" y="501">47</text>
    <text x="572" y="446">48</text>
    <text x="642" y="501">49</text>
    <text x="652" y="501">50</text>
    <text x="714" y="501">51</text>
    <text x="790" y="501">52</text>
    <text x="790" y="468">53</text>
    <text x="790" y="474">54</text>
    <text x="790" y="409">55</text>
    <text x="790" y="348">56</text>
    <text x="790" y="284">57</text>
    <text x="798" y="244">58</text>
    <text x="798" y="220">59</text>
    <text x="798" y="185">60</text>
    <text x="790" y="168">61</text>
    <text x="790" y="157">62</text>
    <text x="790" y="115">63</text>

    <!-- Lokalen: deuren -->
    <text x="506" y="482">64</text>
    <text x="642" y="482">65</text>
    <text x="652" y="482">66</text>
    <text x="805" y="474">67</text>
    <text x="805" y="409">68</text>
    <text x="805" y="348">69</text>
    <text x="805" y="284">70</text>
    <text x="805" y="220">71</text>
    <text x="805" y="157">72</text>
    <text x="775" y="409">73</text>
    <text x="775" y="348">74</text>
    <text x="775" y="284">75</text>
    <text x="775" y="168">76</text>
    <text x="775" y="157">77</text>
    <text x="784" y="101">78</text>
    <text x="796" y="101">79</text>

    <!-- Lokalen: multis -->
    <text x="745" y="378">80</text>

    <!-- Lokalen: trappen -->
    <text x="824" y="509">25</text>
    <text x="852" y="509">27</text>
    <text x="859" y="509">81</text>
    <text x="859" y="491">82</text>
    <text x="824" y="491">83</text>
    <text x="782" y="226">29</text>
    <text x="782" y="186">30</text>


    <!-- Restaurant -->
    <text x="441" y="501">84</text>
    <text x="441" y="410">85</text>
    <text x="441" y="320">86</text>


    <!-- Lecturers: gangen -->
    <text x="441" y="530">87</text>
    <text x="441" y="559">88</text>
    <text x="441" y="575">89</text>
    <!-- bottom-right -->
    <text x="441" y="625">90</text>
    <!-- bottom -->
    <text x="436" y="625">91</text>
    <text x="404" y="625">92</text>
    <text x="399" y="625">93</text>
    <text x="395" y="625">94</text>
    <text x="342" y="625">95</text>
    <text x="333" y="625">96</text>
    <text x="279" y="625">97</text>
    <text x="269" y="625">98</text>
    <text x="216" y="625">99</text>
    <text x="206" y="625">100</text>
    <text x="153" y="625">101</text>
    <text x="143" y="625">102</text>
    <text x="116" y="625">103</text>
    <text x="88"  y="625">104</text>
    <text x="79"  y="625">105</text>
    <!-- bottom-left -->
    <text x="60"  y="625">106</text>
    <!-- left -->
    <text x="60"  y="590">107</text>
    <text x="60"  y="525">108</text>
    <text x="60"  y="516">109</text>
    <text x="60"  y="462">110</text>
    <text x="60"  y="452">111</text>
    <text x="60"  y="398">112</text>
    <text x="60"  y="389">113</text>
    <text x="60"  y="336">114</text>
    <text x="60"  y="326">115</text>
    <text x="60"  y="310">116</text>
    <text x="60"  y="293">117</text>
    <text x="60"  y="266">118</text>
    <text x="60"  y="240">119</text>
    <!-- top-left -->
    <text x="60"  y="243">120</text>
    <!-- top -->
    <text x="96"  y="243">121</text>
    <text x="105"  y="243">122</text>
    <text x="159"  y="243">123</text>
    <text x="169"  y="243">124</text>
    <text x="222"  y="243">125</text>
    <text x="231"  y="243">126</text>
    <text x="285"  y="243">127</text>
    <text x="294"  y="243">128</text>
    <text x="348"  y="243">129</text>
    <text x="358"  y="243">130</text>
    <text x="385"  y="243">131</text>
    <text x="424"  y="243">132</text>
    <text x="414"  y="243">133</text>
    <!-- top-right -->
    <text x="441"  y="243">134</text>
    <!-- right -->
    <text x="441"  y="247">135</text>
    <text x="441"  y="277">136</text>
    <text x="441"  y="287">137</text>
    <text x="441"  y="307">138</text>


    <!-- Lecturers: deuren -->
    <text x="453" y="575">139</text>
    <!-- bottom -->
    <text x="436" y="636">140</text>
    <text x="404" y="636">141</text>
    <text x="395" y="636">142</text>
    <text x="342" y="636">143</text>
    <text x="342" y="614">144</text>
    <text x="333" y="636">145</text>
    <text x="333" y="614">146</text>
    <text x="279" y="636">147</text>
    <text x="279" y="614">148</text>
    <text x="269" y="636">149</text>
    <text x="269" y="614">150</text>
    <text x="216" y="636">151</text>
    <text x="216" y="614">152</text>
    <text x="206" y="636">153</text>
    <text x="206" y="614">154</text>
    <text x="153" y="636">155</text>
    <text x="153" y="614">156</text>
    <text x="143" y="636">157</text>
    <text x="143" y="614">158</text>
    <text x="88"  y="636">159</text>
    <text x="79"  y="636">160</text>
    <!-- left -->
    <text x="49"  y="625">161</text>
    <text x="49"  y="590">162</text>
    <text x="49"  y="525">163</text>
    <text x="70"  y="525">164</text>
    <text x="49"  y="516">165</text>
    <text x="70"  y="516">166</text>
    <text x="49"  y="462">167</text>
    <text x="70"  y="462">168</text>
    <text x="49"  y="452">169</text>
    <text x="70"  y="452">170</text>
    <text x="49"  y="398">171</text>
    <text x="70"  y="398">172</text>
    <text x="49"  y="389">173</text>
    <text x="70"  y="389">174</text>
    <text x="49"  y="336">175</text>
    <text x="49"  y="326">176</text>
    <text x="49"  y="293">177</text>
    <text x="49"  y="240">178</text>
    <!-- top -->
    <text x="96"   y="233">179</text>
    <text x="105"  y="233">180</text>
    <text x="159"  y="233">181</text>
    <text x="169"  y="233">182</text>
    <text x="169"  y="254">183</text>
    <text x="231"  y="233">184</text>
    <text x="231"  y="254">185</text>
    <text x="222"  y="233">186</text>
    <text x="222"  y="254">187</text>
    <text x="285"  y="254">188</text>
    <text x="294"  y="233">189</text>
    <text x="294"  y="254">190</text>
    <text x="348"  y="233">191</text>
    <text x="348"  y="254">192</text>
    <text x="358"  y="233">193</text>
    <text x="358"  y="254">194</text>
    <text x="424"  y="233">195</text>
    <text x="414"  y="233">196</text>
    <!-- right -->
    <text x="453"  y="247">197</text>
    <text x="453"  y="277">198</text>
    <text x="428"  y="277">199</text>
    <text x="453"  y="287">200</text>


    <!-- Lecturers: trappen -->
    <text x="430"  y="559">201</text>
    <text x="422"  y="559">202</text>
    <text x="386"  y="559">36</text><!-- omlaag -->
    <text x="386"  y="547">37</text><!-- omlaag -->
    <text x="422"  y="547">38</text><!-- omlaag -->
    <text x="386"  y="559">.......39</text><!-- omhoog -->
    <text x="386"  y="547">.......40</text><!-- omhoog -->
    <text x="422"  y="547">.......41</text><!-- omhoog -->

    <text x="69"   y="310">203</text>
    <text x="76"   y="310">42</text>
    <text x="112"  y="310">43</text><!-- omlaag -->
    <text x="112"  y="322">44</text><!-- omlaag -->
    <text x="76"   y="322">45</text><!-- omlaag -->    

    <!-- Labels van lokalen -->
    <text x="460" y="410">Kantine</text>
    <!-- Rechterzijde van kantine -->
    <text x="835" y="450">301</text>
    <text x="835" y="385">303</text>
    <text x="835" y="325">305</text>
    <text x="835" y="260">307</text>
    <text x="835" y="200">309</text>
    <text x="835" y="135">311</text>
    <text x="740" y="385">302</text>
    <text x="740" y="325">304</text>
    <text x="740" y="260">306</text>
    <text x="740" y="200">308</text>
    <text x="740" y="135">310</text>
    <text x="750" y="50">312</text>
    <text x="830" y="50">313</text>
    <text x="675" y="450">176</text>
    <text x="570" y="450">174</text>
    <!-- Boven de kantine -->
    <text x="475" y="270">102</text>
    <text x="405" y="285">103</text>
    <text x="475" y="220">104</text>
    <text x="432" y="215">105</text>
    <text x="400" y="215">106</text>
    <text x="367" y="215">107</text>
    <text x="335" y="215">108</text>
    <text x="305" y="215">111</text>
    <text x="335" y="280">110</text>
    <text x="305" y="280">113</text>
    <text x="270" y="280">114</text>
    <text x="210" y="215">116</text>
    <text x="240" y="280">117</text>
    <text x="210" y="280">118</text>
    <text x="177" y="215">119</text>
    <text x="145" y="215">120</text>
    <text x="115" y="215">123</text>
    <text x="75" y="215">124</text>
    <text x="22" y="215">126</text>
    <text x="22" y="252">126a</text> 
    <text x="22" y="285">128</text> 
    <text x="22" y="317">131</text> 
    <text x="22" y="347">132</text> 
    <text x="22" y="377">133</text> 
    <text x="22" y="410">134</text> 
    <text x="90" y="377">135</text> 
    <text x="90" y="410">136</text> 
    <text x="22" y="442">137</text> 
    <text x="90" y="442">139</text> 
    <text x="22" y="475">138</text> 
    <text x="90" y="475">140</text> 
    <text x="90" y="505">143</text> 
    <text x="90" y="547">144</text> 
    <text x="22" y="555">142</text> 
    <text x="22" y="600">145</text> 
    <text x="22" y="650">145a</text> 
    <text x="65" y="660">147</text> 
    <text x="97" y="660">148</text> 
    <text x="129" y="660">150</text> 
    <text x="161" y="660">151</text> 
    <text x="192" y="660">154</text> 
    <text x="224" y="660">155</text> 
    <text x="255" y="660">157a</text> 
    <text x="286" y="660">157b</text> 
    <text x="318" y="660">160</text> 
    <text x="350" y="660">161</text> 
    <text x="380" y="660">164</text> 
    <text x="470" y="660">167</text> 
    <text x="475" y="585">169</text> 
    
    <text x="129" y="590">152</text> 
    <text x="161" y="590">153</text> 
    <text x="192" y="590">156</text> 
    <text x="224" y="590">156a</text> 
    <text x="255" y="590">158</text> 
    <text x="286" y="590">159</text> 
    <text x="318" y="590">162</text> 
    <text x="357" y="590">163</text> 




</svg>