<?xml version="1.0" encoding="UTF-8" standalone="no"?>
<!DOCTYPE svg PUBLIC "-//W3C//DTD SVG 1.1//EN" "http://www.w3.org/Graphics/SVG/1.1/DTD/svg11.dtd">
<svg width="100%" height="100%" viewBox="0 0 867 685" version="1.1" xmlns="http://www.w3.org/2000/svg" xmlns:xlink="http://www.w3.org/1999/xlink" xml:space="preserve" xmlns:serif="http://www.serif.com/" style="fill-rule: evenodd; stroke: #000000; stroke-linecap: square; font-size: 4px; font-weight: lighter; clip-rule: evenodd; stroke-miterlimit: 1.5">
    <rect width="100%" height="100%" style="fill: #ffffff"/>
    
    <path d="M501.6,413l212.4,0l0,-413m0,0l152.7,0m-43.1,517.3l0,-17.4l28.7,0m14.4,17.4l-60.5,0l0,3.8m-295.2,-36.8l0,-4.7l126.5,0l0,4.7m19,0l0,-4.7l84.8,0l0,-4l8.3,0l0,4l26.7,0l0,-13.4m0,-8.3l0,-11.5m0,-18l0,-15.4l-62.2,0m62.2,-7.9l-2.7,0l0.1,-51l3.1,0m0,-12.1l-3.1,0l0.1,-53l3,0m0,-136.9l-3.1,0l0.1,-51.4l-59.8,0m62.8,177.2l-3,0l0.2,-105.3m4.1,-9.5l-64.2,0m60,63.2l16.1,0l0,-40.7m0.1,-185.7l0,100.8m76.6,62.4l-60.7,0l0,51.2l-2.2,0m62.8,-113.6l-60.7,0l0,51.2l-2.2,0m0,74.5l2.2,0l0,51.6l-2.2,0m0,12.4l2.2,0l0,51.5l-2.2,0m0,12.2l2.2,0l0,51l-2.2,0m0,12.4l2.4,0l0,50.8l-6,0m3.6,11.3l62.8,0m0,0l0,-479.5m-219.8,413l0,71.3m-145.3,-71.3l0,81.7m212.4,-81.7l0.2,66.6m0,0l0,15.6m14.6,-82.2l0,66.6m-14.6,26.3l0,15.2m-212.6,0l365.1,0l0,-41.5m-152.7,-190.5l59.9,0m32.2,1.4l60.7,0m-60.7,-64l60.7,0m-152.7,0l60,0m32.1,127.6l60.7,0m-60.7,63.4l60.7,0m-137.9,19.8l48.2,0m-48.2,18.2l47.4,0m-47.4,-8.9l13.2,0m-13.2,17.8l13.2,0m-13.2,9.1l12.4,0l0,2.2m-362.2,45.4l50.6,0l0,32.7m-50.6,-14.9l50.6,0m-45.2,31.4l45.2,0m-45.2,16.7l45.2,0m-45.2,-8.1l13.6,0m-13.6,24.3l45.2,0m-45.2,-7.9l13.6,0m-19,-30.7l50.6,0l0,7.4m0,9.1l0,9.7m0,7.9l0,16.4l-50,0l0,-3.2l-9.5,0l0,3.2l-22.7,0l0,-3.4m-20.7,0l0,3.4l-41.7,0l0,-3.2m-21.3,0l0,3.2l-41.7,0l0,-2.6m-21.3,0l0,2.6l-42.3,0l0,-2.6m42.3,26.1l0,-4l-42.3,0l0,4m-21.3,0l0,-4l-43.1,0l0,4m-21.5,0l0,-4l-22,0l0,-4.9m0,-8.8l0,-25.2l-4.5,0m0,-361.2l43.8,0l0,-4.5m21.3,0l0,4.5l41.9,0l0,-4.5m-34.6,163.9l-45.8,0m45.8,62.9l-45.8,0m45.8,63.9l-45.8,0m45.8,-96.5l-49.4,0m49.4,-76.6l-49.4,0m49.4,-17.7l-49.4,0m49.4,-27.3l-49.4,0m49.4,261.9l0,5.9l-49.4,0m284.5,-267.8l0,-45.8m-0.7,-27l0,-45.8m66.3,45.8l0,-26.8m0,-8.7l0,-10.3m-192.6,45.8l0,-45.8m-62.9,45.8l0,-45.8m-63.3,45.8l0,-45.8m189.2,118.6l0,-45.8m-63.1,45.8l0,-14.4m0,-8.7l0,-22.7m96.9,45.8l0,-50.3m55.9,50.3l5.8,0l0,-50.3m-126.4,50.3l0,-50.3m-62.5,50.3l0,-34.2m0,-8.7l0,-7.4m-77.6,50.3l0,-4.9l-3.1,0l0,-45.4m-46.3,11.7l46.3,0m-46.3,16.9l46.3,0m-13,-8.1l13,0m-46.3,24.8l46.3,0m-13,-8l13,0m80.8,-55.4l0,-50.3m-63,50.3l0,-50.3m-80.2,50.3l0,-50.3m326.4,337l0,43.5l-260.8,0l0,-261.9l260.8,0l0,202.1m-55.8,-270.4l0,-50.3m61.7,50.3l0,-50.3m66.4,50.3l0,-31.3m0,-8.7l0,-10.3m3.6,97.7l46.8,0m-50.3,333.3l50.3,0m-50.3,-68.8l50.3,0m-501.6,-280l49.4,0m-49.4,-31.8l37.3,0m-37.3,126.7l49.4,0m-49.4,63.1l49.4,0m-49.4,64l49.4,0m-49.4,126.7l12.2,0m8.7,0l29.5,0m-50.3,-31.2l12.2,0m8.7,0l24.9,0m-45.8,-127l45.8,0m-45.8,63.9l45.8,0m-45.8,-126.9l45.8,0m-45.8,-63l45.8,0m4.5,303.7l0,50.3m65.4,-50.3l0,50.3m-32.5,-46.4l0,46.4m64.6,-46.4l0,46.4m63.1,-46.4l0,46.4m63.4,-46.4l0,46.4m227.1,-175l0,175l-501.6,0l0,-501l501.6,0l0,228.9m-164.3,225.6l0,46.4m61.3,-46.4l0,46.4m-14.1,-120.5l0,50.6m-206,19.6l0,50.3m63.1,-50.3l0,50.3m-125.8,-114.5l0,44.6m32.1,-50.6l0,11.5m0,8.7l0,27.8m63.1,-48l0,48m63.4,-48l0,48m62.9,-48l0,48m-158.8,-48l0,50.6m63.1,-50.6l0,50.6m63.3,-50.6l0,50.6m0,19.6l0,50.3m63.1,-50.3l0,50.3m-322.1,-101.1l0,-9.5l4.5,0l0,-42.5l-4.5,0m217.8,106.7l0,-4l-41.7,0l0,4m104.7,0l0,-4l-41.7,0l0,4m104.7,0l0,-4l-42.3,0l0,4m82.2,46.4l0,-50.3l-19.7,0l0,4m-273,-26.1l0,2.6l-68.2,0l0,-83.2l3.2,0m0,-21.5l-3.2,0l0,-42.3l3.6,0m-26.1,42.3l3.2,0l0,-42.3l-3.6,0m26.5,-21.9l-3.6,0l0,-42.3l3.6,0m-26.5,42.3l3.6,0l0,-42.3l-3.6,0m26.5,-21.3l-3.6,0l0,-68m-22.9,68l3.6,0l0,-41.3l-3.6,0m0,-21.3l3.6,0l0,-20.4l-49.4,0m45.9,-13.6l3.6,0l0,-41.5m19.4,61.5l0,-10.1m0,-8.7l0,-9.5m0,-8.5l0,-16.8l84,0l0,4.3l10.6,0m10.7,0l0,-4.3l41.8,0l0,4.2m-41.9,-26.6l0,4.3l41.8,0l0,-4.2m20.7,26.4l0,-4.1l42.1,0l0,3.6m-42.1,-25.7l0,4.1l42.1,0l0,-3.6l10.5,0l0,-46.8m212.2,131.5l-50.3,0l0,-22.4l3.6,0m0,-21.1l-3.6,0l0,-19.7l50.3,0m-200.8,3.6l0,-3.6l41.9,0l0,3.5m-41.9,-25l0,3.6l41.9,0l0,-3.5m21.1,-0.1l0,3.6l44.6,0l0,-3.5m21.3,-0.1l0,3.6l21.5,0l0,8.1l3.6,0m-12.5,395.8l0,-3.6l9,0l0,-53.6l3.6,0m46.8,-60l-50.3,0l0,47.7l3.6,0m-91,-313l0,-3.5l65.8,0l0,19.7l-3.6,0m0,9.7l3.6,0l0,33.8l-50.6,0m403.2,152.7l-6,0m-344.7,61.7l-1.8,0m21.6,0l-1.8,0" style="fill: none; stroke: #000000; stroke-width: 0.7px"/>

    <!-- Lokalen: gangen -->
    <text x="501" y="501">46</text>
    <text x="506" y="501">47</text>
    <text x="572" y="446">48</text>
    <text x="642" y="501">49</text>
    <text x="652" y="501">50</text>
    <text x="714" y="501">51</text>
    <text x="790" y="501">52</text>
    <text x="790" y="468">53</text>
    <text x="790" y="474">54</text>
    <text x="790" y="409">55</text>
    <text x="790" y="348">56</text>
    <text x="790" y="284">57</text>
    <text x="798" y="244">58</text>
    <text x="798" y="220">59</text>
    <text x="798" y="185">60</text>
    <text x="790" y="168">61</text>
    <text x="790" y="157">62</text>
    <text x="790" y="115">63</text>

    <!-- Lokalen: deuren -->
    <text x="506" y="482">64</text>
    <text x="642" y="482">65</text>
    <text x="652" y="482">66</text>
    <text x="805" y="474">67</text>
    <text x="805" y="409">68</text>
    <text x="805" y="348">69</text>
    <text x="805" y="284">70</text>
    <text x="805" y="220">71</text>
    <text x="805" y="157">72</text>
    <text x="775" y="409">73</text>
    <text x="775" y="348">74</text>
    <text x="775" y="284">75</text>
    <text x="775" y="168">76</text>
    <text x="775" y="157">77</text>
    <text x="784" y="101">78</text>
    <text x="796" y="101">79</text>

    <!-- Lokalen: multis -->
    <text x="745" y="378">80</text>

    <!-- Lokalen: trappen -->
    <text x="824" y="509">25</text>
    <text x="852" y="509">27</text>
    <text x="859" y="509">81</text>
    <text x="859" y="491">82</text>
    <text x="824" y="491">83</text>
    <text x="782" y="226">29</text>
    <text x="782" y="186">30</text>


    <!-- Restaurant -->
    <text x="441" y="501">84</text>
    <text x="441" y="410">85</text>
    <text x="441" y="320">86</text>


    <!-- Lecturers: gangen -->
    <text x="441" y="530">87</text>
    <text x="441" y="559">88</text>
    <text x="441" y="575">89</text>
    <!-- bottom-right -->
    <text x="441" y="625">90</text>
    <!-- bottom -->
    <text x="436" y="625">91</text>
    <text x="404" y="625">92</text>
    <text x="399" y="625">93</text>
    <text x="395" y="625">94</text>
    <text x="342" y="625">95</text>
    <text x="333" y="625">96</text>
    <text x="279" y="625">97</text>
    <text x="269" y="625">98</text>
    <text x="216" y="625">99</text>
    <text x="206" y="625">100</text>
    <text x="153" y="625">101</text>
    <text x="143" y="625">102</text>
    <text x="116" y="625">103</text>
    <text x="88"  y="625">104</text>
    <text x="79"  y="625">105</text>
    <!-- bottom-left -->
    <text x="60"  y="625">106</text>
    <!-- left -->
    <text x="60"  y="590">107</text>
    <text x="60"  y="525">108</text>
    <text x="60"  y="516">109</text>
    <text x="60"  y="462">110</text>
    <text x="60"  y="452">111</text>
    <text x="60"  y="398">112</text>
    <text x="60"  y="389">113</text>
    <text x="60"  y="336">114</text>
    <text x="60"  y="326">115</text>
    <text x="60"  y="310">116</text>
    <text x="60"  y="293">117</text>
    <text x="60"  y="266">118</text>
    <text x="60"  y="240">119</text>
    <!-- top-left -->
    <text x="60"  y="243">120</text>
    <!-- top -->
    <text x="96"  y="243">121</text>
    <text x="105"  y="243">122</text>
    <text x="159"  y="243">123</text>
    <text x="169"  y="243">124</text>
    <text x="222"  y="243">125</text>
    <text x="231"  y="243">126</text>
    <text x="285"  y="243">127</text>
    <text x="294"  y="243">128</text>
    <text x="348"  y="243">129</text>
    <text x="358"  y="243">130</text>
    <text x="385"  y="243">131</text>
    <text x="424"  y="243">132</text>
    <text x="414"  y="243">133</text>
    <!-- top-right -->
    <text x="441"  y="243">134</text>
    <!-- right -->
    <text x="441"  y="247">135</text>
    <text x="441"  y="277">136</text>
    <text x="441"  y="287">137</text>
    <text x="441"  y="307">138</text>


    <!-- Lecturers: deuren -->
    <text x="453" y="575">139</text>
    <!-- bottom -->
    <text x="436" y="636">140</text>
    <text x="404" y="636">141</text>
    <text x="395" y="636">142</text>
    <text x="342" y="636">143</text>
    <text x="342" y="614">144</text>
    <text x="333" y="636">145</text>
    <text x="333" y="614">146</text>
    <text x="279" y="636">147</text>
    <text x="279" y="614">148</text>
    <text x="269" y="636">149</text>
    <text x="269" y="614">150</text>
    <text x="216" y="636">151</text>
    <text x="216" y="614">152</text>
    <text x="206" y="636">153</text>
    <text x="206" y="614">154</text>
    <text x="153" y="636">155</text>
    <text x="153" y="614">156</text>
    <text x="143" y="636">157</text>
    <text x="143" y="614">158</text>
    <text x="88"  y="636">159</text>
    <text x="79"  y="636">160</text>
    <!-- left -->
    <text x="49"  y="625">161</text>
    <text x="49"  y="590">162</text>
    <text x="49"  y="525">163</text>
    <text x="70"  y="525">164</text>
    <text x="49"  y="516">165</text>
    <text x="70"  y="516">166</text>
    <text x="49"  y="462">167</text>
    <text x="70"  y="462">168</text>
    <text x="49"  y="452">169</text>
    <text x="70"  y="452">170</text>
    <text x="49"  y="398">171</text>
    <text x="70"  y="398">172</text>
    <text x="49"  y="389">173</text>
    <text x="70"  y="389">174</text>
    <text x="49"  y="336">175</text>
    <text x="49"  y="326">176</text>
    <text x="49"  y="293">177</text>
    <text x="49"  y="240">178</text>
    <!-- top -->
    <text x="96"   y="233">179</text>
    <text x="105"  y="233">180</text>
    <text x="159"  y="233">181</text>
    <text x="169"  y="233">182</text>
    <text x="169"  y="254">183</text>
    <text x="231"  y="233">184</text>
    <text x="231"  y="254">185</text>
    <text x="222"  y="233">186</text>
    <text x="222"  y="254">187</text>
    <text x="285"  y="254">188</text>
    <text x="294"  y="233">189</text>
    <text x="294"  y="254">190</text>
    <text x="348"  y="233">191</text>
    <text x="348"  y="254">192</text>
    <text x="358"  y="233">193</text>
    <text x="358"  y="254">194</text>
    <text x="424"  y="233">195</text>
    <text x="414"  y="233">196</text>
    <!-- right -->
    <text x="453"  y="247">197</text>
    <text x="453"  y="277">198</text>
    <text x="428"  y="277">199</text>
    <text x="453"  y="287">200</text>


    <!-- Lecturers: trappen -->
    <text x="430"  y="559">201</text>
    <text x="422"  y="559">202</text>
    <text x="386"  y="559">36</text><!-- omlaag -->
    <text x="386"  y="547">37</text><!-- omlaag -->
    <text x="422"  y="547">38</text><!-- omlaag -->
    <text x="386"  y="559">.......39</text><!-- omhoog -->
    <text x="386"  y="547">.......40</text><!-- omhoog -->
    <text x="422"  y="547">.......41</text><!-- omhoog -->

    <text x="69"   y="310">203</text>
    <text x="76"   y="310">42</text>
    <text x="112"  y="310">43</text><!-- omlaag -->
    <text x="112"  y="322">44</text><!-- omlaag -->
    <text x="76"   y="322">45</text><!-- omlaag -->    
</svg>