<?xml version="1.0" encoding="UTF-8" standalone="no"?>
<!DOCTYPE svg PUBLIC "-//W3C//DTD SVG 1.1//EN" "http://www.w3.org/Graphics/SVG/1.1/DTD/svg11.dtd">
<svg width="100%" height="100%" viewBox="0 0 867 685" version="1.1" xmlns="http://www.w3.org/2000/svg" xmlns:xlink="http://www.w3.org/1999/xlink" xml:space="preserve" xmlns:serif="http://www.serif.com/" style="fill-rule: evenodd; stroke: #000000; stroke-linecap: square; font-size: 5px; font-weight:lighter; clip-rule: evenodd; stroke-miterlimit: 1.5">
    <rect width="100%" height="100%" style="fill: #ffffff"/>
    
    <path d="M379.017,521.042l50.611,-0l-0,32.678m-50.611,-14.944l50.611,0m-45.19,31.353l45.19,0m-45.19,16.706l45.19,-0m-45.19,-8.111l13.595,0m-13.595,24.332l45.19,-0m-45.19,-7.869l13.595,0m-19.016,-30.676l50.611,0l-0,7.438m-0,9.134l-0,9.685m-0,7.934l-0,16.388l-50.018,-0l0,-3.157l-9.484,-0l-0,3.157m-319.797,-0l-50.329,-0m68.803,-380.552l20.747,0l-0,-4.545m21.339,0l0,4.545l41.889,0l-0,-4.545m-34.578,163.925l-45.841,0m45.841,62.949l-45.841,0m45.841,63.948l-45.841,0m45.841,-96.51l-49.397,-0m49.397,-76.621l-49.397,-0m49.397,-17.73l-49.397,-0m49.397,-27.304l-49.397,0m49.397,251.189l-49.397,0m284.46,-251.189l0,-45.84m-0.674,-26.958l0,-45.841m66.253,45.841l0,-45.699m-192.556,45.699l-0,-45.841m-62.896,45.841l0,-45.841m-63.286,45.841l0,-45.841m189.243,118.639l-0,-45.84m-63.061,45.84l-0,-14.418m-0,-8.687l-0,-22.735m96.856,45.84l-0,-50.329m55.875,50.329l5.776,0l-0,-50.329m-126.434,50.329l0,-50.329m-62.513,50.329l0,-50.329m-77.646,50.329l-0,-4.948l-3.119,-0l-0,-45.381m-46.278,11.728l46.278,-0m-46.278,16.947l46.278,0m-12.989,-8.11l12.989,-0m-46.278,24.816l46.278,-0m-12.989,-7.99l12.989,0m80.765,-55.372l0,-50.329m-63.024,50.329l-0,-50.329m-64.019,50.527l-0,-50.527m310.214,337.031l0,43.469l-260.817,0l-0,-261.861l260.789,0l0.028,218.392Zm-55.875,-286.702l-0,-50.329m61.651,50.329l-0,-50.329m66.443,50.329l0,-50.187m3.557,77.383l-3.557,0l0,43.747l3.557,-0m-3.557,-23.523l50.329,-0m-50.329,65.404l50.329,-0m-50.329,255.892l50.329,-0m-50.329,-56.791l50.329,-0m-501.565,-311.727l57.036,0m-57.036,126.662l49.439,0m-49.439,127.152l49.439,-0m-49.439,-31.485l45.784,0m-45.784,63.948l45.784,0m-45.784,-126.897l45.784,0m-45.784,-62.999l45.784,-0m4.545,294.108l0,59.958m451.236,-500.974l0,500.974l-501.565,-0l0,-500.974l501.565,0Zm-164.264,466.772l0,34.202m47.137,-120.474l-0,50.579m-47.137,-50.579l0,50.579l21.45,-0m24.204,19.566l0,50.329m-382.955,-131.146l50.329,0l0,-21.93l-4.545,0m352.775,106.698l0,-3.951l-61.258,-0l0,7.649m92.327,42.68l-0,-50.329l-19.702,-0l-0,3.951m-341.123,-84.768l-0,-21.93l3.161,0m0,-21.537l-3.161,0l-0,-42.284l3.556,0m-26.081,42.284l3.161,0l-0,-42.284l-3.557,0m26.477,-21.932l-3.556,-0l-0,-42.284l3.556,-0m-26.477,42.284l3.557,-0l-0,-42.284l-3.557,-0l0,-9.954m26.477,-11.386l-3.556,0l-0,-67.97m-22.921,67.97l3.557,0l-0,-41.296l-3.557,0m0,-21.34l3.557,0l-0,-20.41l-49.439,0m45.882,-13.575l3.557,0l-0,-41.494l-3.557,0m22.921,61.451l-0,-10.077m-0,-8.694l-0,-9.485m-0,-8.496l-0,-16.795l83.975,0l-0,4.347m10.612,45.982l0,-45.982m10.728,-0l-0,-4.347l41.841,0l0.047,4.248m-41.888,-26.576l-0,4.347l41.841,0l0.047,-4.248m20.747,26.378l0,-4.149l42.087,0l-0,3.557m-42.087,-25.687l0,4.149l42.087,0l-0,-3.556l10.507,-0l-0,-46.773m212.218,131.538l-46.772,0m46.772,127.664l-46.772,0m46.772,-31.876l-50.329,0m-25.165,-95.788l-47.08,0m47.08,63.912l-47.08,-0m50.637,31.876l-50.637,0m47.08,31.876l-47.08,0m75.802,-74.696l-3.557,0l0,-44.182l3.557,0m-28.722,44.182l3.557,0l-0,-44.182l-3.557,0m0,109.561l3.557,-0l-0,-44.182l-3.557,-0m-47.054,84.526l50.611,-0l-0,-22.384l-3.557,-0m75.494,22.384l-50.329,-0l0,-22.384l3.557,-0m-0,-17.96l-3.557,-0l0,-54.435l50.329,-0m-50.329,-127.14l50.329,0m-200.793,3.557l0,-3.557l41.885,0l0.004,3.483m-41.889,-25.02l0,3.556l41.885,0l0.004,-3.482m21.142,-0.074l-0,3.556l44.556,0l0.005,-3.482m21.33,-0.074l0,3.556l21.542,0l0,8.102l3.557,-0m-12.549,395.77l-0,-3.556l43.235,-0m7.978,-0l8.108,-0m-46.772,-10.275l-3.557,-0l0,-54.077l3.557,0m46.772,-49.262l-50.329,-0l0,36.968l3.557,0m-90.99,-302.206l-0,-3.483l65.825,0l-0,52.962l-3.557,-0m5.359,224.717l-1.802,0m21.608,0l-1.806,0" style="fill:none;stroke:#000;stroke-width:0.71px;"/>
</svg>