<?xml version="1.0" encoding="UTF-8" standalone="no"?>
<!DOCTYPE svg PUBLIC "-//W3C//DTD SVG 1.1//EN" "http://www.w3.org/Graphics/SVG/1.1/DTD/svg11.dtd">
<svg width="100%" height="100%" viewBox="0 0 867 685" version="1.1" xmlns="http://www.w3.org/2000/svg" xmlns:xlink="http://www.w3.org/1999/xlink" xml:space="preserve" xmlns:serif="http://www.serif.com/" style="fill-rule: evenodd; stroke: #000000; stroke-linecap: square; font-size: 4px; font-weight: lighter; clip-rule: evenodd; stroke-miterlimit: 1.5">
    <rect width="100%" height="100%" style="fill: #ffffff"/>
    
    <path d="M379.017,521.042l50.611,-0l-0,32.678m-50.611,-14.944l50.611,0m-45.19,31.353l45.19,0m-45.19,16.706l45.19,-0m-45.19,-8.111l13.595,0m-13.595,24.332l45.19,-0m-45.19,-7.869l13.595,0m-19.016,-30.676l50.611,0l-0,7.438m-0,9.134l-0,9.685m-0,7.934l-0,16.388l-50.018,-0l0,-3.157l-9.484,-0l-0,3.157m-319.797,4.237l-50.329,-0m68.803,-11.488l18.473,0m-18.473,-373.301l20.747,0l-0,-4.545m21.339,0l0,4.545l41.889,0l-0,-4.545m-34.578,163.925l-45.841,0l0,9.954m45.841,52.995l-45.841,0m45.841,63.948l-45.841,0m45.841,-173.131l-49.397,-0m49.397,-17.73l-49.397,-0m49.397,-27.304l-49.397,0m49.397,251.189l-49.397,0m284.46,-251.189l0,-45.84m-0.674,-26.958l0,-45.841m66.253,45.841l0,-45.699m-192.556,45.699l-0,-45.841m-62.896,45.841l0,-45.841m-63.286,45.841l0,-45.841m189.243,118.639l-0,-45.84m-63.061,45.84l-0,-14.418m-0,-8.687l-0,-22.735m96.856,45.84l-0,-50.329m55.875,50.329l5.776,0l-0,-50.329m-126.434,50.329l0,-50.329m-62.513,50.329l0,-50.329m-77.646,50.329l-0,-4.948l-3.119,-0l-0,-45.381m-46.278,11.728l46.278,-0m-46.278,16.947l46.278,0m-12.989,-8.11l12.989,-0m-46.278,24.816l46.278,-0m-12.989,-7.99l12.989,0m80.765,-55.372l0,-50.329m-63.024,50.329l-0,-50.329m-64.019,50.527l-0,-50.527m310.214,337.031l0,43.469l-260.817,0l-0,-261.861l260.789,0l0.028,218.392Zm-55.875,-286.702l-0,-50.329m61.651,50.329l-0,-50.329m66.443,50.329l0,-50.187m3.557,77.383l-3.557,0l0,43.747l3.557,-0m-3.557,-23.523l50.329,-0m-50.329,65.404l50.329,-0m-50.329,255.892l50.329,-0m-50.329,-56.791l50.329,-0m-501.565,-311.727l57.036,0m-57.036,126.662l49.439,0m-49.439,127.152l49.439,-0m19.364,-0l49.397,-0m-118.2,-31.485l45.784,0m-45.784,63.948l45.784,0m-45.784,-126.897l45.784,0m-45.784,-62.999l45.784,-0m4.545,288.408l0,-23.488m0,-41.839l0,32.839m451.236,-402.828l0,500.974l-501.565,-0l0,-500.974l501.565,0Zm-164.264,466.772l0,34.202m47.137,-120.474l-0,50.579m-47.137,-50.579l0,50.579l21.45,-0m24.204,19.566l0,50.329m-382.955,-131.146l50.329,0l0,-21.93l-4.545,0m352.775,106.698l0,-3.951l-61.258,-0l0,7.649m92.327,42.68l-0,-50.329l-19.702,-0l-0,3.951m-341.123,-84.768l-0,-21.93l3.161,0m0,-21.537l-3.161,0l-0,-42.284l3.556,0m-26.081,42.284l3.161,0l-0,-42.284l-3.557,0m26.477,-21.932l-3.556,-0l-0,-42.284l3.556,-0m-26.477,42.284l3.557,-0l-0,-42.284l-3.557,-0l0,-9.954m26.477,-11.386l-3.556,0l-0,-67.97m-22.921,67.97l3.557,0l-0,-41.296l-3.557,0m0,-21.34l3.557,0l-0,-20.41l-49.439,0m45.882,0l0,-13.575l3.557,0l-0,-41.494l-3.557,0m22.921,61.451l-0,-10.077m-0,-8.694l-0,-9.485m-0,-8.496l-0,-16.795l83.975,0l-0,4.347m10.612,45.982l0,-45.982m10.728,-0l-0,-4.347l41.841,0l0.047,4.248m-41.888,-26.576l-0,4.347l41.841,0l0.047,-4.248m20.747,26.378l0,-4.149l42.087,0l-0,3.557m-42.087,-25.687l0,4.149l42.087,0l-0,-3.556l10.507,-0l-0,-46.773m212.218,131.538l-46.772,0m46.772,127.664l-46.772,0m46.772,-31.876l-50.329,0m-25.165,-87.002l0,-8.786l-47.08,0m47.08,63.912l-47.08,-0m50.637,31.876l-50.637,0m47.08,31.876l-47.08,0m75.802,-74.696l-3.557,0l0,-44.182l3.557,0m-28.722,44.182l3.557,0l-0,-44.182l-3.557,0m0,109.561l3.557,-0l-0,-44.182l-3.557,-0m-47.054,84.526l50.611,-0l-0,-22.384l-3.557,-0m75.494,22.384l-50.329,-0l0,-22.384l3.557,-0m-0,-17.96l-3.557,-0l0,-28.031m0,-10.943l0,-15.461l50.329,-0m-50.329,-127.14l50.329,0m-200.793,3.557l0,-3.557l41.885,0l0.004,3.483m-41.889,-25.02l0,3.556l41.885,0l0.004,-3.482m21.142,-0.074l-0,3.556l44.556,0l0.005,-3.482m21.33,-0.074l0,3.556l21.542,0l0,8.102l3.557,-0m-12.549,395.77l-0,-3.556l43.235,-0m7.978,-0l8.108,-0m-46.772,-10.275l-3.557,-0l0,-54.077l3.557,0m46.772,-49.262l-50.329,-0l0,36.968l3.557,0m-90.99,-302.206l-0,-3.483l65.825,0l-0,52.962l-3.557,-0m5.359,224.717l-1.802,0m21.608,0l-1.806,0m-112.129,120.783l-64,0m64,-49.693l-36,-0m0,-0l0,-36.579m-28,86.272l0,-20m-186.025,0l186.025,0m-204.498,-22.944l-0,11.488m18.473,-11.488l-0,11.488m-0,-0l-0,11.456m-36.947,-11.456l18.474,-0" style="fill:none;stroke:#000;stroke-width:0.71px;"/>



    <!-- Lecturers: gangen -->
    <text x="441" y="530">205</text>
    <text x="441" y="559">206</text>
    <text x="441" y="564">207</text>
    <text x="441" y="630">208</text>
    <!-- bottom-right -->
    <text x="441" y="625">209</text>
    <!-- bottom -->
    <text x="436" y="625">210</text>
    <text x="404" y="625">211</text>
    <text x="364" y="625">212</text>
    <text x="342" y="625">213</text>
    <text x="288" y="625">214</text>
    <text x="288" y="591">215</text>
    <!-- bottom-left -->
    <text x="60" y="591">216</text>
    <!-- left -->
    <text x="60" y="553">217</text>
    <text x="60" y="525">218</text>
    <text x="60" y="516">219</text>
    <text x="60" y="462">220</text>
    <text x="60" y="452">221</text>
    <text x="60" y="389">222</text>
    <text x="60" y="336">223</text>
    <text x="60" y="326">224</text>
    <text x="60" y="310">225</text>
    <text x="60" y="266">226</text>
    <text x="60" y="240">227</text>
    <!-- top-left -->
    <text x="60" y="243">228</text>
    <!-- top -->
    <text x="63" y="243">229</text>
    <text x="96" y="243">230</text>
    <text x="105" y="243">231</text>
    <text x="159" y="243">232</text>
    <text x="169" y="243">233</text>
    <text x="222" y="243">234</text>
    <text x="231" y="243">235</text>
    <text x="285" y="243">236</text>
    <text x="294" y="243">237</text>
    <text x="348" y="243">238</text>
    <text x="358" y="243">239</text>
    <text x="385" y="243">240</text>
    <text x="424" y="243">241</text>
    <text x="414" y="243">242</text>
    <!-- top-right -->
    <text x="441" y="243">243</text>
    <!-- right -->
    <text x="441" y="247">244</text>
    <text x="441" y="257">245</text>
    <text x="441" y="310">246</text>
    <text x="441" y="319">247</text>
    <text x="441" y="374">248</text>
    <text x="441" y="385">249</text>
    <text x="441" y="391">250</text>
    <text x="441" y="400">251</text>
    <text x="441" y="439">252</text>
    <text x="441" y="447">253</text>


    <!-- Lecturers: deuren -->
    <text x="451" y="564">254</text>
    <!-- bottom -->
    <text x="436" y="636">255</text>
    <text x="452" y="630">256</text>
    <text x="404" y="636">257</text>
    <text x="364" y="614">258</text>
    <!-- left -->
    <text x="49" y="591">259</text>
    <text x="49" y="525">260</text>
    <text x="70" y="525">261</text>
    <text x="49" y="516">262</text>
    <text x="70" y="516">263</text>
    <text x="49" y="462">264</text>
    <text x="70" y="462">265</text>
    <text x="49" y="452">266</text>
    <text x="70" y="452">267</text>
    <text x="49" y="389">268</text>
    <text x="70" y="389">269</text>
    <text x="49" y="336">270</text>
    <text x="49" y="326">271</text>
    <text x="49" y="240">272</text>
    <!-- top -->
    <text x="63" y="233">273</text>
    <text x="96" y="233">274</text>
    <text x="105" y="233">275</text>
    <text x="159" y="233">276</text>
    <text x="159" y="254">277</text>
    <text x="169" y="233">278</text>
    <text x="169" y="254">279</text>
    <text x="231" y="233">280</text>
    <text x="231" y="254">281</text>
    <text x="222" y="233">282</text>
    <text x="222" y="254">283</text>
    <text x="285" y="254">284</text>
    <text x="294" y="233">285</text>
    <text x="294" y="254">286</text>
    <text x="348" y="233">287</text>
    <text x="348" y="254">288</text>
    <text x="358" y="233">289</text>
    <text x="358" y="254">290</text>
    <text x="424" y="233">291</text>
    <text x="414" y="233">292</text>
    <!-- right -->
    <text x="453" y="247">293</text>
    <text x="453" y="257">294</text>

    <text x="453" y="310">296</text>
    <text x="427" y="310">297</text>
    <text x="453" y="319">298</text>
    <text x="453" y="374">299</text>
    <text x="427" y="374">300</text>
    <text x="427" y="385">302</text>
    <text x="451" y="400">304</text>
    <text x="453" y="439">305</text>
    <text x="453" y="447">306</text>


    <!-- Lecturers: trappen -->
    <text x="430" y="559">307</text>
    <text x="422" y="559">303</text>
    <text x="69" y="310">301</text>
    <text x="76" y="310">295</text>

    <text x="386" y="559">39</text>
    <text x="386" y="547">40</text>
    <text x="422" y="547">41</text>
    <text x="112" y="310">43</text>
    <text x="112" y="322">44</text>
    <text x="76" y="322">45</text>    
</svg>