<?xml version="1.0" encoding="UTF-8" standalone="no"?>
<!DOCTYPE svg PUBLIC "-//W3C//DTD SVG 1.1//EN" "http://www.w3.org/Graphics/SVG/1.1/DTD/svg11.dtd">
<svg width="100%" height="100%" viewBox="0 0 867 685" version="1.1" xmlns="http://www.w3.org/2000/svg" xmlns:xlink="http://www.w3.org/1999/xlink" xml:space="preserve" xmlns:serif="http://www.serif.com/" style="fill-rule: evenodd; stroke: #000000; stroke-linecap: square; font-size: 4px; font-weight: lighter; clip-rule: evenodd; stroke-miterlimit: 1.5">
    <rect x="0.5" y="1" width="100%" height="100%" style="fill: #ffffff"/>
    
    <path d="M 379 521 l 50.6 0 l 0 32.7 m -50.6 -14.9 l 50.6 0 m -45.2 31.4 l 45.2 0 m -45.2 16.7 l 45.2 0 m -45.2 -8.1 l 13.6 0 m -13.6 24.3 l 45.2 0 m -45.2 -7.9 l 13.6 0 m -19 -30.7 l 50.6 0 l 0 7.4 m 0 9.1 l 0 9.7 m 0 7.9 l 0 16.4 l -50 0 l 0 -3.2 l -9.5 0 l 0 3.2 m -319.8 4.2 l -50.3 0 m 68.8 -11.5 l 18.5 0 m -18.5 -373.3 l 20.7 0 l 0 -4.5 m 21.3 0 l 0 4.5 l 41.9 0 l 0 -4.5 m -34.6 163.9 l -45.8 0 l 0 10 m 45.8 53 l -45.8 0 m 45.8 63.9 l -45.8 0 m 45.8 -173.1 l -49.4 0 m 49.4 -17.7 l -49.4 0 m 49.4 -27.3 l -49.4 0 m 49.4 251.2 l -49.4 0 m 284.5 -251.2 l 0 -45.8 m -0.7 -27 l 0 -45.8 m 66.3 45.8 l 0 -45.7 m -192.6 45.7 l 0 -45.8 m -62.9 45.8 l 0 -45.8 m -63.3 45.8 l 0 -45.8 m 189.2 118.6 l 0 -45.8 m -63.1 45.8 l 0 -14.4 m 0 -8.7 l 0 -22.7 m 96.9 45.8 l 0 -50.3 m 55.9 50.3 l 5.8 0 l 0 -50.3 m -126.4 50.3 l 0 -50.3 m -62.5 50.3 l 0 -50.3 m -77.6 50.3 l 0 -4.9 l -3.1 0 l 0 -45.4 m -46.3 11.7 l 46.3 0 m -46.3 16.9 l 46.3 0 m -13 -8.1 l 13 0 m -46.3 24.8 l 46.3 0 m -13 -8 l 13 0 m 80.8 -55.4 l 0 -50.3 m -63 50.3 l 0 -50.3 m -64 50.5 l 0 -50.5 m 310.2 337 l 0 43.5 l -260.8 0 l 0 -261.9 l 260.8 0 l 0 218.4 Z m -55.9 -286.7 l 0 -50.3 m 61.7 50.3 l 0 -50.3 m 66.4 50.3 l 0 -50.2 m 3.6 77.4 l -3.6 0 l 0 43.7 l 3.6 0 m -3.6 -23.5 l 50.3 0 m -50.3 65.4 l 50.3 0 m -50.3 255.9 l 50.3 0 m -50.3 -56.8 l 50.3 0 m -501.6 -311.7 l 57 0 m -57 126.7 l 49.4 0 m -49.4 127.2 l 49.4 0 m 19.4 0 l 49.4 0 m -118.2 -31.5 l 45.8 0 m -45.8 63.9 l 45.8 0 m -45.8 -126.9 l 45.8 0 m -45.8 -63 l 45.8 0 m 4.5 288.4 l 0 -23.5 m 0 -41.8 l 0 32.8 m 451.2 -402.8 l 0 501 l -501.6 0 l 0 -501 l 501.6 0 Z m -164.3 466.8 l 0 34.2 m 47.1 -120.5 l 0 50.6 m -47.1 -50.6 l 0 50.6 l 21.4 0 m 24.2 19.6 l 0 50.3 m -383 -131.1 l 50.3 0 l 0 -21.9 l -4.5 0 m 352.8 106.7 l 0 -4 l -61.3 0 l 0 7.6 m 92.3 42.7 l 0 -50.3 l -19.7 0 l 0 4 m -341.1 -84.8 l 0 -21.9 l 3.2 0 m 0 -21.5 l -3.2 0 l 0 -42.3 l 3.6 0 m -26.1 42.3 l 3.2 0 l 0 -42.3 l -3.6 0 m 26.5 -21.9 l -3.6 0 l 0 -42.3 l 3.6 0 m -26.5 42.3 l 3.6 0 l 0 -42.3 l -3.6 0 l 0 -10 m 26.5 -11.4 l -3.6 0 l 0 -68 m -22.9 68 l 3.6 0 l 0 -41.3 l -3.6 0 m 0 -21.3 l 3.6 0 l 0 -20.4 l -49.4 0 m 45.9 0 l 0 -13.6 l 3.6 0 l 0 -41.5 l -3.6 0 m 22.9 61.5 l 0 -10.1 m 0 -8.7 l 0 -9.5 m 0 -8.5 l 0 -16.8 l 84 0 l 0 4.3 m 10.6 46 l 0 -46 m 10.7 0 l 0 -4.3 l 41.8 0 l 0 4.2 m -41.9 -26.6 l 0 4.3 l 41.8 0 l 0 -4.2 m 20.7 26.4 l 0 -4.1 l 42.1 0 l 0 3.6 m -42.1 -25.7 l 0 4.1 l 42.1 0 l 0 -3.6 l 10.5 0 l 0 -46.8 m 212.2 131.5 l -46.8 0 m 46.8 127.7 l -46.8 0 m 46.8 -31.9 l -50.3 0 m -25.2 -87 l 0 -8.8 l -47.1 0 m 47.1 63.9 l -47.1 0 m 50.6 31.9 l -50.6 0 m 47.1 31.9 l -47.1 0 m 75.8 -74.7 l -3.6 0 l 0 -44.2 l 3.6 0 m -28.7 44.2 l 3.6 0 l 0 -44.2 l -3.6 0 m 0 109.6 l 3.6 0 l 0 -44.2 l -3.6 0 m -47.1 84.5 l 50.6 0 l 0 -22.4 l -3.6 0 m 75.5 22.4 l -50.3 0 l 0 -22.4 l 3.6 0 m 0 -18 l -3.6 0 l 0 -28 m 0 -10.9 l 0 -15.5 l 50.3 0 m -50.3 -127.1 l 50.3 0 m -200.8 3.6 l 0 -3.6 l 41.9 0 l 0 3.5 m -41.9 -25 l 0 3.6 l 41.9 0 l 0 -3.5 m 21.1 -0.1 l 0 3.6 l 44.6 0 l 0 -3.5 m 21.3 -0.1 l 0 3.6 l 21.5 0 l 0 8.1 l 3.6 0 m -12.5 395.8 l 0 -3.6 l 43.2 0 m 8 0 l 8.1 0 m -46.8 -10.3 l -3.6 0 l 0 -54.1 l 3.6 0 m 46.8 -49.3 l -50.3 0 l 0 37 l 3.6 0 m -91 -302.2 l 0 -3.5 l 65.8 0 l 0 53 l -3.6 0 m 5.4 224.7 l -1.8 0 m 21.6 0 l -1.8 0 m -112.1 120.8 l -64 0 m 64 -49.7 l -36 0 m 0 0 l 0 -36.6 m -28 86.3 l 0 -20 m -186 0 l 186 0 m -204.5 -22.9 l 0 11.5 m 18.5 -11.5 l 0 11.5 m 0 0 l 0 11.5 m -36.9 -11.5 l 18.5 0" style="fill: none; stroke: #000000; stroke-width: 0.7px"/>



    <!-- Lecturers: gangen -->
    <text x="441" y="530">205</text>
    <text x="441" y="559">206</text>
    <text x="441" y="564">207</text>
    <text x="441" y="630">208</text>
    <!-- bottom-right -->
    <text x="441" y="625">209</text>
    <!-- bottom -->
    <text x="436" y="625">210</text>
    <text x="404" y="625">211</text>
    <text x="364" y="625">212</text>
    <text x="342" y="625">213</text>
    <text x="288" y="625">214</text>
    <text x="288" y="591">215</text>
    <!-- bottom-left -->
    <text x="60" y="591">216</text>
    <!-- left -->
    <text x="60" y="553">217</text>
    <text x="60" y="525">218</text>
    <text x="60" y="516">219</text>
    <text x="60" y="462">220</text>
    <text x="60" y="452">221</text>
    <text x="60" y="389">222</text>
    <text x="60" y="336">223</text>
    <text x="60" y="326">224</text>
    <text x="60" y="310">225</text>
    <text x="60" y="266">226</text>
    <text x="60" y="240">227</text>
    <!-- top-left -->
    <text x="60" y="243">228</text>
    <!-- top -->
    <text x="63" y="243">229</text>
    <text x="96" y="243">230</text>
    <text x="105" y="243">231</text>
    <text x="159" y="243">232</text>
    <text x="169" y="243">233</text>
    <text x="222" y="243">234</text>
    <text x="231" y="243">235</text>
    <text x="285" y="243">236</text>
    <text x="294" y="243">237</text>
    <text x="348" y="243">238</text>
    <text x="358" y="243">239</text>
    <text x="385" y="243">240</text>
    <text x="424" y="243">241</text>
    <text x="414" y="243">242</text>
    <!-- top-right -->
    <text x="441" y="243">243</text>
    <!-- right -->
    <text x="441" y="247">244</text>
    <text x="441" y="257">245</text>
    <text x="441" y="310">246</text>
    <text x="441" y="319">247</text>
    <text x="441" y="374">248</text>
    <text x="441" y="385">249</text>
    <text x="441" y="391">250</text>
    <text x="441" y="400">251</text>
    <text x="441" y="439">252</text>
    <text x="441" y="447">253</text>


    <!-- Lecturers: deuren -->
    <text x="451" y="564">254</text>
    <!-- bottom -->
    <text x="436" y="636">255</text>
    <text x="452" y="630">256</text>
    <text x="404" y="636">257</text>
    <text x="364" y="614">258</text>
    <!-- left -->
    <text x="49" y="591">259</text>
    <text x="49" y="525">260</text>
    <text x="70" y="525">261</text>
    <text x="49" y="516">262</text>
    <text x="70" y="516">263</text>
    <text x="49" y="462">264</text>
    <text x="70" y="462">265</text>
    <text x="49" y="452">266</text>
    <text x="70" y="452">267</text>
    <text x="49" y="389">268</text>
    <text x="70" y="389">269</text>
    <text x="49" y="336">270</text>
    <text x="49" y="326">271</text>
    <text x="49" y="240">272</text>
    <!-- top -->
    <text x="63" y="233">273</text>
    <text x="96" y="233">274</text>
    <text x="105" y="233">275</text>
    <text x="159" y="233">276</text>
    <text x="159" y="254">277</text>
    <text x="169" y="233">278</text>
    <text x="169" y="254">279</text>
    <text x="231" y="233">280</text>
    <text x="231" y="254">281</text>
    <text x="222" y="233">282</text>
    <text x="222" y="254">283</text>
    <text x="285" y="254">284</text>
    <text x="294" y="233">285</text>
    <text x="294" y="254">286</text>
    <text x="348" y="233">287</text>
    <text x="348" y="254">288</text>
    <text x="358" y="233">289</text>
    <text x="358" y="254">290</text>
    <text x="424" y="233">291</text>
    <text x="414" y="233">292</text>
    <!-- right -->
    <text x="453" y="247">293</text>
    <text x="453" y="257">294</text>

    <text x="453" y="310">296</text>
    <text x="427" y="310">297</text>
    <text x="453" y="319">298</text>
    <text x="453" y="374">299</text>
    <text x="427" y="374">300</text>
    <text x="427" y="385">302</text>
    <text x="451" y="400">304</text>
    <text x="453" y="439">305</text>
    <text x="453" y="447">306</text>


    <!-- Lecturers: trappen -->
    <text x="430" y="559">307</text>
    <text x="422" y="559">303</text>
    <text x="69" y="310">301</text>
    <text x="76" y="310">295</text>

    <text x="386" y="559">39</text>
    <text x="386" y="547">40</text>
    <text x="422" y="547">41</text>
    <text x="112" y="310">43</text>
    <text x="112" y="322">44</text>
    <text x="76" y="322">45</text>    

    <!-- Labels van lokalen -->
    <text x="400" y="460">203a</text>
    <text x="400" y="428">203b</text>
    <text x="400" y="397">203c</text>
    <text x="400" y="350">205</text>
    <text x="400" y="285">207</text>
    <text x="471" y="460">206b</text>
    <text x="471" y="428">206c</text>
    <text x="471" y="397">206d</text>
    <text x="471" y="365">208</text>
    <text x="471" y="335">210</text>
    <text x="471" y="300">212</text>
    <text x="471" y="270">214</text>
    <text x="471" y="220">216</text>

    <text x="432" y="210">218</text>
    <text x="400" y="210">220</text>
    <text x="365" y="210">222</text>
    <text x="334" y="210">224</text>
    <text x="302" y="210">224a</text>
    <text x="270" y="210">226</text>
    <text x="240" y="210">228</text>
    <text x="207" y="210">230a</text>
    <text x="177" y="210">230</text>
    <text x="145" y="210">232</text>
    <text x="113" y="210">232a</text>
    <text x="82" y="210">234</text>
    <text x="30" y="210">236</text>

    <text x="20" y="250">238</text>
    <text x="20" y="279">238a</text>
    <text x="20" y="279">240</text>
    <text x="20" y="348">242</text>
    <text x="20" y="379">244</text>
    <text x="20" y="408">246a</text>

    <text x="20" y="440">246b</text>
    <text x="20" y="475">248</text>
    <text x="20" y="505">256</text>
    <text x="20" y="540">252</text>

    <text x="365" y="280">209</text>
    <text x="334" y="280">211</text>
    <text x="302" y="280">213</text>
    <text x="270" y="280">215</text>
    <text x="240" y="280">217</text>
    <text x="208" y="280">219</text>
    <text x="177" y="280">221</text>
    <text x="136" y="280">223</text>
    <text x="90" y="370">225</text>
    <text x="90" y="440">227</text>
    <text x="90" y="415">227a</text>
    <text x="90" y="475">229</text>
    <text x="90" y="505">231</text>
    <text x="90" y="540">233</text>

    <text x="471" y="570">206</text>
    <text x="471" y="575">206a</text>
    <text x="471" y="580">206a2</text>
    <text x="471" y="620">204a</text>
    <text x="460" y="660">204</text>
    <text x="402" y="660">202</text>

    <text x="160" y="575">Library</text>
    


</svg>